<svg xmlns="http://www.w3.org/2000/svg" xmlns:xlink="http://www.w3.org/1999/xlink" width="500" zoomAndPan="magnify" viewBox="0 0 375 374.999991" height="500" preserveAspectRatio="xMidYMid meet" version="1.0"><defs><g/><clipPath id="6ddcbc2ef4"><path d="M 32.203125 32.203125 L 342.796875 32.203125 L 342.796875 342.796875 L 32.203125 342.796875 Z M 32.203125 32.203125 " clip-rule="nonzero"/></clipPath><clipPath id="dcd710847c"><path d="M 187.5 32.203125 C 101.730469 32.203125 32.203125 101.730469 32.203125 187.5 C 32.203125 273.269531 101.730469 342.796875 187.5 342.796875 C 273.269531 342.796875 342.796875 273.269531 342.796875 187.5 C 342.796875 101.730469 273.269531 32.203125 187.5 32.203125 Z M 187.5 32.203125 " clip-rule="nonzero"/></clipPath><clipPath id="d713d5efb3"><path d="M 32.203125 32.203125 L 342.703125 32.203125 L 342.703125 342.703125 L 32.203125 342.703125 Z M 32.203125 32.203125 " clip-rule="nonzero"/></clipPath><clipPath id="c6d346d243"><path d="M 187.496094 32.203125 C 101.730469 32.203125 32.203125 101.730469 32.203125 187.496094 C 32.203125 273.257812 101.730469 342.785156 187.496094 342.785156 C 273.257812 342.785156 342.785156 273.257812 342.785156 187.496094 C 342.785156 101.730469 273.257812 32.203125 187.496094 32.203125 Z M 187.496094 32.203125 " clip-rule="nonzero"/></clipPath><clipPath id="7e5c570d5f"><path d="M 41.242188 41.242188 L 333.742188 41.242188 L 333.742188 162.742188 L 41.242188 162.742188 Z M 41.242188 41.242188 " clip-rule="nonzero"/></clipPath><clipPath id="d6923068c0"><path d="M 41.242188 137 L 333.742188 137 L 333.742188 161.628906 L 41.242188 161.628906 Z M 41.242188 137 " clip-rule="nonzero"/></clipPath><clipPath id="f1042d523d"><path d="M 96.097656 96.097656 L 279 96.097656 L 279 279 L 96.097656 279 Z M 96.097656 96.097656 " clip-rule="nonzero"/></clipPath><clipPath id="33efc67ccc"><path d="M 94.785156 54 L 280.035156 54 L 280.035156 278.902344 L 94.785156 278.902344 Z M 94.785156 54 " clip-rule="nonzero"/></clipPath></defs><g clip-path="url(#6ddcbc2ef4)"><g clip-path="url(#dcd710847c)"><path fill="#d9d9d9" d="M 32.203125 32.203125 L 342.796875 32.203125 L 342.796875 342.796875 L 32.203125 342.796875 Z M 32.203125 32.203125 " fill-opacity="1" fill-rule="nonzero"/></g></g><g clip-path="url(#d713d5efb3)"><g clip-path="url(#c6d346d243)"><path stroke-linecap="butt" transform="matrix(0.75, 0, 0, 0.75, 32.203461, 32.203456)" fill="none" stroke-linejoin="miter" d="M 207.056858 -0.0004415 C 92.702684 -0.0004415 -0.0004475 92.70269 -0.0004475 207.056864 C -0.0004475 321.40583 92.702684 414.108961 207.056858 414.108961 C 321.405824 414.108961 414.108955 321.40583 414.108955 207.056864 C 414.108955 92.70269 321.405824 -0.0004415 207.056858 -0.0004415 Z M 207.056858 -0.0004415 " stroke="#405459" stroke-width="26" stroke-opacity="1" stroke-miterlimit="4"/></g></g><g clip-path="url(#7e5c570d5f)"><path fill="#ffffff" d="M 333.742188 187.492188 C 333.742188 189.886719 333.683594 192.277344 333.566406 194.667969 C 333.449219 197.058594 333.273438 199.445312 333.039062 201.828125 C 332.804688 204.207031 332.511719 206.582031 332.160156 208.953125 C 331.808594 211.320312 331.398438 213.675781 330.933594 216.023438 C 330.464844 218.371094 329.941406 220.707031 329.359375 223.027344 C 328.777344 225.347656 328.140625 227.65625 327.445312 229.945312 C 326.75 232.238281 326 234.507812 325.191406 236.761719 C 324.386719 239.015625 323.523438 241.246094 322.609375 243.460938 C 321.691406 245.671875 320.722656 247.859375 319.699219 250.023438 C 318.675781 252.183594 317.601562 254.324219 316.472656 256.433594 C 315.34375 258.542969 314.164062 260.625 312.933594 262.679688 C 311.703125 264.730469 310.425781 266.753906 309.09375 268.742188 C 307.765625 270.734375 306.386719 272.691406 304.960938 274.613281 C 303.535156 276.535156 302.0625 278.421875 300.542969 280.273438 C 299.027344 282.121094 297.464844 283.933594 295.855469 285.707031 C 294.25 287.480469 292.597656 289.214844 290.90625 290.90625 C 289.214844 292.597656 287.480469 294.25 285.707031 295.855469 C 283.933594 297.464844 282.121094 299.027344 280.273438 300.542969 C 278.421875 302.0625 276.535156 303.535156 274.613281 304.960938 C 272.691406 306.386719 270.734375 307.765625 268.742188 309.09375 C 266.753906 310.425781 264.730469 311.703125 262.679688 312.933594 C 260.625 314.164062 258.542969 315.34375 256.433594 316.472656 C 254.324219 317.601562 252.183594 318.675781 250.023438 319.699219 C 247.859375 320.722656 245.671875 321.691406 243.460938 322.609375 C 241.246094 323.523438 239.015625 324.386719 236.761719 325.191406 C 234.507812 326 232.238281 326.75 229.945312 327.445312 C 227.65625 328.140625 225.347656 328.777344 223.027344 329.359375 C 220.707031 329.941406 218.371094 330.464844 216.023438 330.929688 C 213.675781 331.398438 211.320312 331.808594 208.949219 332.160156 C 206.582031 332.511719 204.207031 332.804688 201.828125 333.039062 C 199.445312 333.273438 197.058594 333.449219 194.667969 333.566406 C 192.277344 333.683594 189.886719 333.742188 187.492188 333.742188 C 185.097656 333.742188 182.707031 333.683594 180.316406 333.566406 C 177.925781 333.449219 175.539062 333.273438 173.15625 333.039062 C 170.773438 332.804688 168.398438 332.511719 166.03125 332.160156 C 163.664062 331.808594 161.308594 331.398438 158.960938 330.929688 C 156.613281 330.464844 154.277344 329.941406 151.957031 329.359375 C 149.632812 328.777344 147.328125 328.140625 145.039062 327.445312 C 142.746094 326.75 140.476562 326 138.222656 325.191406 C 135.96875 324.386719 133.734375 323.523438 131.523438 322.609375 C 129.3125 321.691406 127.125 320.722656 124.960938 319.699219 C 122.796875 318.675781 120.660156 317.601562 118.550781 316.472656 C 116.4375 315.34375 114.355469 314.164062 112.304688 312.933594 C 110.25 311.703125 108.230469 310.425781 106.238281 309.09375 C 104.25 307.765625 102.292969 306.386719 100.371094 304.960938 C 98.449219 303.535156 96.5625 302.0625 94.710938 300.542969 C 92.863281 299.027344 91.050781 297.464844 89.277344 295.855469 C 87.503906 294.25 85.769531 292.597656 84.078125 290.90625 C 82.386719 289.214844 80.734375 287.480469 79.128906 285.707031 C 77.519531 283.933594 75.957031 282.121094 74.4375 280.273438 C 72.921875 278.421875 71.449219 276.535156 70.023438 274.613281 C 68.597656 272.691406 67.21875 270.734375 65.890625 268.742188 C 64.558594 266.753906 63.28125 264.730469 62.050781 262.679688 C 60.820312 260.625 59.640625 258.542969 58.511719 256.433594 C 57.382812 254.324219 56.308594 252.183594 55.285156 250.023438 C 54.261719 247.859375 53.289062 245.671875 52.375 243.460938 C 51.457031 241.246094 50.597656 239.015625 49.792969 236.761719 C 48.984375 234.507812 48.234375 232.238281 47.539062 229.945312 C 46.84375 227.65625 46.207031 225.347656 45.625 223.027344 C 45.042969 220.707031 44.519531 218.371094 44.050781 216.023438 C 43.585938 213.675781 43.175781 211.320312 42.824219 208.949219 C 42.472656 206.582031 42.179688 204.207031 41.945312 201.828125 C 41.710938 199.445312 41.535156 197.058594 41.417969 194.667969 C 41.300781 192.277344 41.242188 189.886719 41.242188 187.492188 C 41.242188 185.097656 41.300781 182.707031 41.417969 180.316406 C 41.535156 177.925781 41.710938 175.539062 41.945312 173.15625 C 42.179688 170.773438 42.472656 168.398438 42.824219 166.03125 C 43.175781 163.664062 43.585938 161.308594 44.050781 158.960938 C 44.519531 156.613281 45.042969 154.277344 45.625 151.957031 C 46.207031 149.632812 46.84375 147.328125 47.539062 145.039062 C 48.234375 142.746094 48.984375 140.476562 49.792969 138.222656 C 50.597656 135.96875 51.457031 133.734375 52.375 131.523438 C 53.289062 129.3125 54.261719 127.125 55.285156 124.960938 C 56.308594 122.796875 57.382812 120.660156 58.511719 118.550781 C 59.640625 116.4375 60.820312 114.355469 62.050781 112.304688 C 63.28125 110.25 64.558594 108.230469 65.890625 106.238281 C 67.21875 104.25 68.597656 102.292969 70.023438 100.371094 C 71.449219 98.449219 72.921875 96.5625 74.4375 94.710938 C 75.957031 92.863281 77.519531 91.050781 79.128906 89.277344 C 80.734375 87.503906 82.386719 85.769531 84.078125 84.078125 C 85.769531 82.386719 87.503906 80.734375 89.277344 79.128906 C 91.050781 77.519531 92.863281 75.957031 94.710938 74.4375 C 96.5625 72.921875 98.449219 71.449219 100.371094 70.023438 C 102.292969 68.597656 104.25 67.21875 106.238281 65.890625 C 108.230469 64.558594 110.25 63.28125 112.304688 62.050781 C 114.355469 60.820312 116.4375 59.640625 118.550781 58.511719 C 120.660156 57.382812 122.796875 56.308594 124.960938 55.285156 C 127.125 54.261719 129.3125 53.289062 131.523438 52.375 C 133.734375 51.457031 135.96875 50.597656 138.222656 49.792969 C 140.476562 48.984375 142.746094 48.234375 145.039062 47.539062 C 147.328125 46.84375 149.632812 46.207031 151.957031 45.625 C 154.277344 45.042969 156.613281 44.519531 158.960938 44.050781 C 161.308594 43.585938 163.664062 43.175781 166.03125 42.824219 C 168.398438 42.472656 170.773438 42.179688 173.15625 41.945312 C 175.539062 41.710938 177.925781 41.535156 180.316406 41.417969 C 182.707031 41.300781 185.097656 41.242188 187.492188 41.242188 C 189.886719 41.242188 192.277344 41.300781 194.667969 41.417969 C 197.058594 41.535156 199.445312 41.710938 201.828125 41.945312 C 204.207031 42.179688 206.582031 42.472656 208.949219 42.824219 C 211.320312 43.175781 213.675781 43.585938 216.023438 44.050781 C 218.371094 44.519531 220.707031 45.042969 223.027344 45.625 C 225.347656 46.207031 227.65625 46.84375 229.945312 47.539062 C 232.238281 48.234375 234.507812 48.984375 236.761719 49.792969 C 239.015625 50.597656 241.246094 51.457031 243.460938 52.375 C 245.671875 53.289062 247.859375 54.261719 250.023438 55.285156 C 252.183594 56.308594 254.324219 57.382812 256.433594 58.511719 C 258.542969 59.640625 260.625 60.820312 262.679688 62.050781 C 264.730469 63.28125 266.753906 64.558594 268.742188 65.890625 C 270.734375 67.21875 272.691406 68.597656 274.613281 70.023438 C 276.535156 71.449219 278.421875 72.921875 280.273438 74.4375 C 282.121094 75.957031 283.933594 77.519531 285.707031 79.128906 C 287.480469 80.734375 289.214844 82.386719 290.90625 84.078125 C 292.597656 85.769531 294.25 87.503906 295.855469 89.277344 C 297.464844 91.050781 299.027344 92.863281 300.542969 94.710938 C 302.0625 96.5625 303.535156 98.449219 304.960938 100.371094 C 306.386719 102.292969 307.765625 104.25 309.09375 106.238281 C 310.425781 108.230469 311.703125 110.25 312.933594 112.304688 C 314.164062 114.355469 315.34375 116.4375 316.472656 118.550781 C 317.601562 120.660156 318.675781 122.796875 319.699219 124.960938 C 320.722656 127.125 321.691406 129.3125 322.609375 131.523438 C 323.523438 133.734375 324.386719 135.96875 325.191406 138.222656 C 326 140.476562 326.75 142.746094 327.445312 145.039062 C 328.140625 147.328125 328.777344 149.632812 329.359375 151.957031 C 329.941406 154.277344 330.464844 156.613281 330.933594 158.960938 C 331.398438 161.308594 331.808594 163.664062 332.160156 166.03125 C 332.511719 168.398438 332.804688 170.773438 333.039062 173.15625 C 333.273438 175.539062 333.449219 177.925781 333.566406 180.316406 C 333.683594 182.707031 333.742188 185.097656 333.742188 187.492188 Z M 333.742188 187.492188 " fill-opacity="1" fill-rule="nonzero"/></g><g clip-path="url(#d6923068c0)"><path fill="#8c52ff" d="M 49.867188 137.695312 C 47.035156 145.558594 44.898438 153.605469 43.449219 161.835938 C 42 170.066406 41.265625 178.359375 41.242188 186.714844 L 333.738281 186.714844 C 333.71875 178.355469 332.984375 170.054688 331.535156 161.820312 C 330.085938 153.585938 327.945312 145.535156 325.113281 137.667969 Z M 49.867188 137.695312 " fill-opacity="1" fill-rule="nonzero"/></g><path fill="#8c52ff" d="M 286.453125 79.617188 C 284.785156 78.085938 283.085938 76.589844 281.347656 75.136719 C 279.609375 73.683594 277.839844 72.269531 276.039062 70.898438 C 274.238281 69.527344 272.402344 68.199219 270.539062 66.914062 C 268.675781 65.625 266.78125 64.382812 264.859375 63.183594 C 262.9375 61.988281 260.988281 60.835938 259.015625 59.726562 C 257.039062 58.617188 255.039062 57.558594 253.015625 56.542969 C 250.988281 55.527344 248.941406 54.558594 246.871094 53.640625 C 244.800781 52.71875 242.710938 51.847656 240.601562 51.027344 C 238.492188 50.203125 236.363281 49.429688 234.21875 48.707031 C 232.070312 47.984375 229.910156 47.308594 227.730469 46.6875 C 225.554688 46.0625 223.363281 45.492188 221.160156 44.96875 C 218.957031 44.449219 216.742188 43.980469 214.515625 43.558594 C 212.289062 43.140625 210.054688 42.773438 207.8125 42.460938 C 205.570312 42.144531 203.320312 41.882812 201.066406 41.671875 C 198.808594 41.460938 196.550781 41.304688 194.289062 41.199219 C 192.027344 41.09375 189.761719 41.042969 187.496094 41.042969 C 185.234375 41.042969 182.96875 41.09375 180.707031 41.199219 C 178.445312 41.304688 176.1875 41.460938 173.929688 41.671875 C 171.675781 41.882812 169.425781 42.144531 167.183594 42.460938 C 164.941406 42.773438 162.707031 43.140625 160.480469 43.558594 C 158.253906 43.980469 156.039062 44.449219 153.835938 44.96875 C 151.632812 45.492188 149.441406 46.0625 147.261719 46.6875 C 145.085938 47.308594 142.925781 47.984375 140.777344 48.707031 C 138.632812 49.429688 136.503906 50.203125 134.394531 51.027344 C 132.28125 51.847656 130.191406 52.71875 128.125 53.640625 C 126.054688 54.558594 124.007812 55.527344 121.980469 56.542969 C 119.957031 57.558594 117.957031 58.617188 115.980469 59.726562 C 114.007812 60.835938 112.058594 61.988281 110.136719 63.183594 C 108.214844 64.382812 106.320312 65.625 104.457031 66.914062 C 102.59375 68.199219 100.757812 69.527344 98.957031 70.898438 C 97.15625 72.269531 95.382812 73.683594 93.648438 75.136719 C 91.910156 76.589844 90.210938 78.085938 88.542969 79.617188 Z M 286.453125 79.617188 " fill-opacity="1" fill-rule="nonzero"/><path fill="#8c52ff" d="M 323.394531 133.179688 C 319.738281 124 315.191406 115.28125 309.765625 107.023438 C 304.335938 98.761719 298.132812 91.132812 291.160156 84.132812 L 83.820312 84.132812 C 76.847656 91.132812 70.644531 98.761719 65.214844 107.023438 C 59.789062 115.28125 55.246094 124 51.585938 133.179688 Z M 323.394531 133.179688 " fill-opacity="1" fill-rule="nonzero"/><g clip-path="url(#f1042d523d)"><path fill="#fff9f0" d="M 278.898438 187.496094 C 278.898438 188.992188 278.859375 190.488281 278.785156 191.980469 C 278.714844 193.476562 278.601562 194.964844 278.457031 196.457031 C 278.308594 197.945312 278.128906 199.429688 277.90625 200.90625 C 277.6875 202.386719 277.433594 203.859375 277.140625 205.328125 C 276.847656 206.792969 276.519531 208.253906 276.15625 209.703125 C 275.792969 211.15625 275.394531 212.597656 274.960938 214.027344 C 274.527344 215.460938 274.058594 216.878906 273.554688 218.289062 C 273.050781 219.695312 272.511719 221.09375 271.9375 222.472656 C 271.367188 223.855469 270.761719 225.222656 270.121094 226.574219 C 269.480469 227.925781 268.808594 229.261719 268.105469 230.582031 C 267.398438 231.902344 266.660156 233.203125 265.894531 234.484375 C 265.125 235.769531 264.324219 237.03125 263.492188 238.277344 C 262.660156 239.519531 261.800781 240.742188 260.910156 241.945312 C 260.019531 243.144531 259.097656 244.324219 258.148438 245.480469 C 257.199219 246.636719 256.222656 247.769531 255.21875 248.878906 C 254.214844 249.984375 253.183594 251.070312 252.125 252.125 C 251.070312 253.183594 249.984375 254.214844 248.878906 255.21875 C 247.769531 256.222656 246.636719 257.199219 245.480469 258.148438 C 244.324219 259.097656 243.144531 260.019531 241.945312 260.910156 C 240.742188 261.800781 239.519531 262.660156 238.277344 263.492188 C 237.03125 264.324219 235.769531 265.125 234.484375 265.894531 C 233.203125 266.660156 231.902344 267.398438 230.582031 268.105469 C 229.261719 268.808594 227.925781 269.480469 226.574219 270.121094 C 225.222656 270.761719 223.855469 271.367188 222.472656 271.9375 C 221.089844 272.511719 219.695312 273.050781 218.289062 273.554688 C 216.878906 274.058594 215.460938 274.527344 214.027344 274.960938 C 212.597656 275.394531 211.15625 275.792969 209.703125 276.15625 C 208.253906 276.519531 206.792969 276.847656 205.328125 277.140625 C 203.859375 277.433594 202.386719 277.6875 200.90625 277.90625 C 199.429688 278.125 197.945312 278.308594 196.457031 278.457031 C 194.964844 278.601562 193.476562 278.714844 191.980469 278.785156 C 190.488281 278.859375 188.992188 278.898438 187.496094 278.898438 C 186 278.898438 184.503906 278.859375 183.011719 278.785156 C 181.515625 278.714844 180.027344 278.601562 178.539062 278.457031 C 177.050781 278.308594 175.566406 278.128906 174.085938 277.90625 C 172.605469 277.6875 171.132812 277.433594 169.664062 277.140625 C 168.199219 276.847656 166.738281 276.519531 165.289062 276.15625 C 163.835938 275.792969 162.394531 275.394531 160.964844 274.960938 C 159.53125 274.527344 158.113281 274.058594 156.703125 273.554688 C 155.296875 273.050781 153.902344 272.511719 152.519531 271.9375 C 151.136719 271.367188 149.769531 270.761719 148.417969 270.121094 C 147.066406 269.480469 145.730469 268.808594 144.410156 268.105469 C 143.089844 267.398438 141.789062 266.660156 140.507812 265.894531 C 139.222656 265.125 137.960938 264.324219 136.71875 263.492188 C 135.472656 262.660156 134.25 261.800781 133.050781 260.910156 C 131.847656 260.019531 130.667969 259.097656 129.511719 258.148438 C 128.355469 257.199219 127.222656 256.222656 126.117188 255.21875 C 125.007812 254.214844 123.925781 253.183594 122.867188 252.125 C 121.808594 251.070312 120.777344 249.984375 119.773438 248.878906 C 118.769531 247.769531 117.792969 246.636719 116.84375 245.480469 C 115.894531 244.324219 114.972656 243.144531 114.082031 241.945312 C 113.191406 240.742188 112.332031 239.519531 111.5 238.277344 C 110.667969 237.03125 109.867188 235.769531 109.101562 234.484375 C 108.332031 233.203125 107.59375 231.902344 106.886719 230.582031 C 106.183594 229.261719 105.511719 227.925781 104.871094 226.574219 C 104.230469 225.222656 103.625 223.855469 103.054688 222.472656 C 102.480469 221.089844 101.941406 219.695312 101.4375 218.289062 C 100.933594 216.878906 100.464844 215.460938 100.03125 214.027344 C 99.597656 212.597656 99.199219 211.15625 98.835938 209.703125 C 98.472656 208.253906 98.144531 206.792969 97.851562 205.328125 C 97.558594 203.859375 97.304688 202.386719 97.085938 200.90625 C 96.867188 199.429688 96.683594 197.945312 96.535156 196.457031 C 96.390625 194.964844 96.28125 193.476562 96.207031 191.980469 C 96.132812 190.488281 96.097656 188.992188 96.097656 187.496094 C 96.097656 186 96.132812 184.503906 96.207031 183.011719 C 96.28125 181.515625 96.390625 180.027344 96.535156 178.539062 C 96.683594 177.050781 96.867188 175.566406 97.085938 174.085938 C 97.304688 172.605469 97.558594 171.132812 97.851562 169.664062 C 98.144531 168.199219 98.472656 166.738281 98.835938 165.289062 C 99.199219 163.835938 99.597656 162.394531 100.03125 160.964844 C 100.464844 159.53125 100.933594 158.113281 101.4375 156.703125 C 101.941406 155.296875 102.480469 153.902344 103.054688 152.519531 C 103.625 151.136719 104.230469 149.769531 104.871094 148.417969 C 105.511719 147.066406 106.183594 145.730469 106.886719 144.410156 C 107.59375 143.089844 108.332031 141.789062 109.101562 140.507812 C 109.867188 139.222656 110.667969 137.960938 111.5 136.71875 C 112.332031 135.472656 113.191406 134.25 114.082031 133.050781 C 114.972656 131.847656 115.894531 130.667969 116.84375 129.511719 C 117.792969 128.355469 118.769531 127.222656 119.773438 126.117188 C 120.777344 125.007812 121.808594 123.925781 122.867188 122.867188 C 123.925781 121.808594 125.007812 120.777344 126.117188 119.773438 C 127.222656 118.769531 128.355469 117.792969 129.511719 116.84375 C 130.667969 115.894531 131.847656 114.972656 133.050781 114.082031 C 134.25 113.191406 135.472656 112.332031 136.71875 111.5 C 137.960938 110.667969 139.222656 109.867188 140.507812 109.101562 C 141.789062 108.332031 143.089844 107.59375 144.410156 106.886719 C 145.730469 106.183594 147.066406 105.511719 148.417969 104.871094 C 149.769531 104.230469 151.136719 103.625 152.519531 103.054688 C 153.902344 102.480469 155.296875 101.941406 156.703125 101.4375 C 158.113281 100.933594 159.53125 100.464844 160.964844 100.03125 C 162.394531 99.597656 163.835938 99.199219 165.289062 98.835938 C 166.738281 98.472656 168.199219 98.144531 169.664062 97.851562 C 171.132812 97.558594 172.605469 97.304688 174.085938 97.085938 C 175.566406 96.867188 177.050781 96.683594 178.539062 96.535156 C 180.027344 96.390625 181.515625 96.28125 183.011719 96.207031 C 184.503906 96.132812 186 96.097656 187.496094 96.097656 C 188.992188 96.097656 190.488281 96.132812 191.980469 96.207031 C 193.476562 96.28125 194.964844 96.390625 196.457031 96.535156 C 197.945312 96.683594 199.429688 96.867188 200.90625 97.085938 C 202.386719 97.304688 203.859375 97.558594 205.328125 97.851562 C 206.792969 98.144531 208.253906 98.472656 209.703125 98.835938 C 211.15625 99.199219 212.597656 99.597656 214.027344 100.03125 C 215.460938 100.464844 216.878906 100.933594 218.289062 101.4375 C 219.695312 101.941406 221.09375 102.480469 222.472656 103.054688 C 223.855469 103.625 225.222656 104.230469 226.574219 104.871094 C 227.925781 105.511719 229.261719 106.183594 230.582031 106.886719 C 231.902344 107.59375 233.203125 108.332031 234.484375 109.101562 C 235.769531 109.867188 237.03125 110.667969 238.277344 111.5 C 239.519531 112.332031 240.742188 113.191406 241.945312 114.082031 C 243.144531 114.972656 244.324219 115.894531 245.480469 116.84375 C 246.636719 117.792969 247.769531 118.769531 248.878906 119.773438 C 249.984375 120.777344 251.070312 121.808594 252.125 122.867188 C 253.183594 123.925781 254.214844 125.007812 255.21875 126.117188 C 256.222656 127.222656 257.199219 128.355469 258.148438 129.511719 C 259.097656 130.667969 260.019531 131.847656 260.910156 133.050781 C 261.800781 134.25 262.660156 135.472656 263.492188 136.71875 C 264.324219 137.960938 265.125 139.222656 265.894531 140.507812 C 266.660156 141.789062 267.398438 143.089844 268.105469 144.410156 C 268.808594 145.730469 269.480469 147.066406 270.121094 148.417969 C 270.761719 149.769531 271.367188 151.136719 271.9375 152.519531 C 272.511719 153.902344 273.050781 155.296875 273.554688 156.703125 C 274.058594 158.113281 274.527344 159.53125 274.960938 160.964844 C 275.394531 162.394531 275.792969 163.835938 276.15625 165.289062 C 276.519531 166.738281 276.847656 168.199219 277.140625 169.664062 C 277.433594 171.132812 277.6875 172.605469 277.90625 174.085938 C 278.128906 175.566406 278.308594 177.050781 278.457031 178.539062 C 278.601562 180.027344 278.714844 181.515625 278.785156 183.011719 C 278.859375 184.503906 278.898438 186 278.898438 187.496094 Z M 278.898438 187.496094 " fill-opacity="1" fill-rule="nonzero"/></g><g clip-path="url(#33efc67ccc)"><path fill="#405459" d="M 104.933594 207.640625 C 121.851562 204.730469 152.046875 215.992188 182.910156 227.503906 C 205.113281 235.789062 227.65625 244.191406 246.5 247.757812 C 231.179688 262.445312 210.390625 271.46875 187.488281 271.46875 C 163.941406 271.46875 142.621094 261.925781 127.191406 246.496094 C 116.613281 235.914062 108.800781 222.570312 104.933594 207.640625 M 219.527344 203.921875 C 229.9375 200.144531 239.164062 198.335938 247.4375 198.375 C 256.117188 198.417969 263.808594 200.507812 270.796875 204.5 C 268.839844 213.457031 265.472656 221.890625 260.9375 229.554688 C 248.167969 225.703125 234.210938 215.425781 219.527344 203.921875 Z M 132.402344 111.621094 C 128.691406 114.363281 125.195312 117.382812 121.9375 120.636719 C 105.160156 137.414062 94.785156 160.59375 94.785156 186.195312 C 94.785156 211.792969 105.160156 234.972656 121.9375 251.746094 C 138.714844 268.527344 161.890625 278.898438 187.488281 278.898438 C 213.089844 278.898438 236.269531 268.527344 253.042969 251.746094 C 269.820312 234.972656 280.195312 211.792969 280.195312 186.195312 C 280.195312 160.59375 269.816406 137.414062 253.042969 120.640625 C 240.125 107.71875 223.410156 98.601562 204.71875 95.085938 C 197.046875 90.695312 188.617188 91.363281 188.617188 91.363281 L 200.140625 90.382812 C 192.757812 87.34375 186.113281 87.648438 180.761719 89.144531 C 184.332031 87.964844 187.210938 87.75 187.210938 87.75 L 182.171875 86.984375 C 194.058594 79.070312 206.277344 84.570312 206.277344 84.570312 C 202.539062 81.125 193.703125 79.675781 193.703125 79.675781 C 199.921875 77.808594 210.964844 79.085938 210.964844 79.085938 C 199.257812 67.582031 186.238281 73.535156 186.238281 73.535156 C 188.351562 70.96875 196.105469 67.691406 196.105469 67.691406 C 185.503906 67.320312 178.886719 75.421875 176.8125 78.402344 L 176.839844 78.195312 L 181.078125 70.6875 C 179.539062 71.699219 178.195312 72.789062 177.019531 73.925781 C 176.949219 72.25 176.714844 70.496094 176.277344 68.660156 L 174.1875 77.179688 L 174.082031 77.324219 C 174.617188 73.851562 175.453125 63.253906 167.378906 56.179688 C 167.378906 56.179688 170.785156 63.878906 170.566406 67.195312 C 170.566406 67.195312 165.15625 53.945312 148.746094 54.304688 C 148.746094 54.304688 157.671875 60.941406 160.925781 66.558594 C 160.925781 66.558594 153.492188 61.566406 148.410156 61.515625 C 148.410156 61.515625 159.75 65.417969 163.71875 77.617188 C 160.851562 74.140625 156.847656 70.925781 151.257812 68.796875 L 158.980469 77.402344 C 158.980469 77.402344 148.117188 65.441406 133.714844 69.164062 C 133.714844 69.164062 143.191406 70.90625 146.1875 73.253906 C 146.1875 73.253906 130.160156 69.816406 119.914062 85.570312 C 119.914062 85.570312 131.945312 81.414062 139.359375 81.960938 C 139.359375 81.960938 129.839844 85.757812 126.511719 90.539062 C 126.511719 90.539062 138.816406 81.367188 154.058594 87.277344 L 148.605469 89.378906 C 148.605469 89.378906 154.445312 88.535156 160.726562 90.148438 C 154.308594 88.863281 145.453125 89.007812 136.757812 95.40625 L 148.175781 93.574219 C 148.175781 93.574219 132.238281 96.226562 127.566406 110.351562 C 127.566406 110.351562 134.164062 103.324219 137.761719 102.078125 C 137.777344 102.082031 134.269531 105.601562 132.402344 111.621094 Z M 172.046875 215.582031 C 165.375 206.921875 158.167969 201.285156 150.421875 198.664062 C 150.179688 202.265625 150.246094 205.878906 150.625 209.476562 C 149.628906 205.730469 148.898438 201.914062 148.4375 198.066406 C 144.988281 166.066406 152.566406 132.070312 166.457031 103.535156 C 167.640625 101.09375 168.65625 99.164062 169.398438 97.796875 C 170.054688 99.359375 170.484375 100.96875 170.75 102.5625 C 171.980469 109.996094 169.59375 117.066406 169.59375 117.066406 L 172.648438 112.085938 C 175.699219 128.148438 164.457031 138.585938 164.457031 138.585938 C 169.753906 136.179688 175.214844 127.503906 175.214844 127.503906 C 174.414062 134.894531 168.148438 145.976562 168.148438 145.976562 C 185.496094 138.746094 185.015625 122.363281 185.015625 122.363281 C 186.78125 125.738281 186.78125 135.375 186.78125 135.375 C 193.046875 121.886719 183.25 109.035156 183.25 109.035156 L 190.316406 118.1875 C 188.863281 110.300781 184.984375 104.867188 180.804688 101.175781 C 180.148438 100.59375 179.484375 100.058594 178.820312 99.558594 C 179.707031 100.054688 180.546875 100.59375 181.328125 101.136719 C 185.445312 104.007812 187.984375 107.191406 187.984375 107.191406 L 185.449219 101.925781 C 200.605469 108.0625 203.292969 123.167969 203.292969 123.167969 C 204.136719 117.40625 199.804688 108.121094 199.804688 108.121094 C 205.578125 112.796875 211.503906 124.066406 211.503906 124.066406 C 213.222656 114.480469 210.28125 107.585938 207.050781 103.167969 C 222.746094 106.851562 236.773438 114.871094 247.796875 125.894531 C 263.230469 141.328125 272.773438 162.648438 272.773438 186.195312 C 272.773438 189.78125 272.550781 193.316406 272.121094 196.785156 C 264.675781 192.996094 256.542969 191.015625 247.476562 190.972656 C 242.21875 190.945312 236.664062 191.578125 230.765625 192.890625 C 236.144531 190.566406 241.878906 189.246094 247.695312 188.976562 C 244.609375 171.542969 229.386719 158.304688 211.066406 158.304688 C 199.074219 158.304688 188.414062 163.976562 181.609375 172.785156 C 184.375 175.289062 186.976562 177.972656 189.394531 180.820312 C 178.636719 173.226562 167.597656 166.589844 156.3125 162.488281 C 155.628906 164.984375 155.199219 167.542969 155.019531 170.125 C 173.597656 177.082031 191.714844 191.390625 208.929688 204.984375 C 225.636719 218.175781 241.535156 230.734375 256.738281 235.984375 C 255.433594 237.796875 254.058594 239.558594 252.617188 241.257812 C 233.542969 238.488281 209.328125 229.453125 185.5 220.570312 C 180.984375 218.886719 176.496094 217.210938 172.046875 215.582031 Z M 130.148438 228.945312 C 151.855469 244.050781 176.542969 254.328125 202.554688 259.085938 C 175.210938 259.90625 148.832031 248.925781 130.148438 228.945312 Z M 203.753906 136.734375 C 206.234375 135.847656 208.96875 137.03125 210.023438 139.429688 L 210.035156 139.519531 L 210.050781 139.484375 L 210.0625 139.519531 L 210.074219 139.429688 C 211.128906 137.03125 213.863281 135.847656 216.339844 136.734375 C 215.304688 135.535156 213.605469 135.152344 212.152344 135.792969 C 211.007812 136.300781 210.230469 137.351562 210.046875 138.546875 C 209.867188 137.347656 209.089844 136.300781 207.941406 135.792969 C 206.492188 135.152344 204.792969 135.535156 203.753906 136.734375 Z M 233.382812 153.035156 C 236.390625 151.957031 239.707031 153.390625 240.984375 156.300781 L 240.996094 156.410156 L 241.011719 156.371094 L 241.027344 156.410156 L 241.039062 156.300781 C 242.316406 153.390625 245.636719 151.953125 248.640625 153.035156 C 247.382812 151.578125 245.320312 151.113281 243.5625 151.890625 C 242.171875 152.503906 241.230469 153.78125 241.007812 155.230469 C 240.785156 153.777344 239.84375 152.503906 238.453125 151.890625 C 236.699219 151.113281 234.640625 151.578125 233.382812 153.035156 Z M 228.101562 139.507812 C 230.179688 138.765625 232.476562 139.757812 233.363281 141.769531 L 233.371094 141.847656 L 233.382812 141.816406 L 233.398438 141.847656 L 233.402344 141.769531 C 234.289062 139.753906 236.585938 138.761719 238.667969 139.507812 C 237.796875 138.503906 236.371094 138.179688 235.15625 138.71875 C 234.191406 139.144531 233.539062 140.027344 233.382812 141.03125 C 233.234375 140.027344 232.578125 139.144531 231.617188 138.71875 C 230.394531 138.175781 228.96875 138.5 228.101562 139.507812 Z M 103.390625 200.394531 C 100.675781 180.15625 109.554688 165.617188 132.140625 165.707031 C 132.394531 163.140625 132.867188 160.601562 133.558594 158.113281 C 124.0625 158.0625 114.414062 160.394531 104.625 165.972656 C 108.375 150.542969 116.324219 136.757812 127.191406 125.890625 C 128.550781 124.527344 129.960938 123.210938 131.414062 121.941406 C 131.714844 124.691406 132.476562 127.667969 133.898438 130.835938 C 133.898438 130.835938 136.039062 122.078125 139.386719 115.765625 C 140.015625 114.578125 140.691406 113.476562 141.398438 112.535156 C 141.398438 112.535156 141.242188 113.355469 141.0625 114.648438 C 140.621094 117.898438 140.070312 124.132812 141.648438 127.984375 C 141.648438 127.984375 141.097656 119.851562 145.914062 111.71875 C 147.703125 108.691406 150.242188 105.667969 153.828125 103.0625 L 152.746094 108.289062 L 152.644531 108.777344 C 152.644531 108.777344 152.738281 108.570312 152.925781 108.210938 C 153.851562 106.40625 157.070312 100.707031 162.433594 96.910156 C 163.277344 96.3125 164.175781 95.761719 165.125 95.277344 C 164.847656 95.65625 164.570312 96.03125 164.296875 96.410156 C 162.039062 99.519531 159.949219 102.777344 158.027344 106.140625 C 143.132812 132.207031 136.730469 167.128906 135.390625 197.265625 C 131.371094 197.804688 127.222656 199.023438 122.953125 200.941406 C 115.589844 199.726562 108.972656 199.421875 103.390625 200.394531 Z M 103.390625 200.394531 " fill-opacity="1" fill-rule="evenodd"/></g><path stroke-linecap="butt" transform="matrix(0.75, 0, 0, 0.75, 37.500002, 159.46606)" fill="none" stroke-linejoin="miter" d="M -0.00000271667 4.998379 L 85.140628 4.998379 " stroke="#405459" stroke-width="10" stroke-opacity="1" stroke-miterlimit="4"/><path stroke-linecap="butt" transform="matrix(0.75, 0, 0, 0.75, 273.645779, 159.46606)" fill="none" stroke-linejoin="miter" d="M -0.00166304 4.998379 L 85.138968 4.998379 " stroke="#405459" stroke-width="10" stroke-opacity="1" stroke-miterlimit="4"/><g fill="#405459" fill-opacity="1"><g transform="translate(53.013638, 178.855579)"><g><path d="M 30.90625 0.3125 L 26.140625 0.484375 C 26.1875 1.515625 26 1.765625 24.96875 1.796875 L 6.078125 2.46875 C 5.046875 2.515625 4.84375 2.28125 4.796875 1.25 L 0.046875 1.421875 L 0.375 10.578125 L 5.125 10.40625 C 5.09375 9.390625 5.28125 9.140625 6.3125 9.09375 L 12.90625 8.859375 L 13.125 14.96875 L 6.53125 15.203125 C 5.5 15.25 5.296875 15 5.25 13.96875 L 0.5 14.140625 L 0.828125 23.3125 L 5.578125 23.140625 C 5.546875 22.109375 5.734375 21.859375 6.765625 21.8125 L 25.65625 21.140625 C 26.6875 21.109375 26.890625 21.34375 26.921875 22.375 L 31.6875 22.203125 L 31.359375 13.03125 L 26.59375 13.203125 C 26.640625 14.234375 26.453125 14.5 25.421875 14.53125 L 18.8125 14.765625 L 18.59375 8.65625 L 25.203125 8.421875 C 26.234375 8.390625 26.4375 8.625 26.46875 9.640625 L 31.234375 9.46875 Z M 30.90625 0.3125 "/></g></g></g><g fill="#405459" fill-opacity="1"><g transform="translate(55.150797, 211.316613)"><g><path d="M 17.171875 4.015625 C 25.375 1.6875 27.296875 2.375 27.953125 4.6875 C 28.59375 6.984375 27.484375 8.421875 19.09375 10.796875 C 10.703125 13.15625 9.03125 12.515625 8.390625 10.21875 C 7.734375 7.90625 8.78125 6.375 17.171875 4.015625 Z M 15.109375 -3.28125 C 4.4375 -0.28125 0.734375 4.234375 2.875 11.78125 C 5.015625 19.359375 10.5 21.15625 21.171875 18.15625 C 31.828125 15.140625 35.578125 10.71875 33.4375 3.140625 C 31.296875 -4.40625 25.765625 -6.296875 15.109375 -3.28125 Z M 15.109375 -3.28125 "/></g></g></g><g fill="#405459" fill-opacity="1"><g transform="translate(64.747609, 241.505633)"><g><path d="M 27.453125 -14.140625 L 18.40625 -9.21875 L 20.1875 -5.953125 C 23.15625 -7.578125 24.109375 -7.765625 25.453125 -5.8125 L 8.625 3.34375 C 7.71875 3.84375 7.421875 3.71875 6.9375 2.8125 L 2.765625 5.078125 L 7.140625 13.125 L 11.3125 10.859375 C 10.828125 9.96875 10.90625 9.6875 11.8125 9.1875 L 28.640625 0.03125 C 29.515625 2.171875 28.8125 2.828125 25.84375 4.453125 L 27.6875 7.828125 L 36.734375 2.90625 Z M 27.453125 -14.140625 "/></g></g></g><g fill="#405459" fill-opacity="1"><g transform="translate(78.870424, 265.919348)"><g><path d="M 37.0625 -4.3125 L 29.484375 -13.109375 L 26.796875 -16.21875 L 24.28125 -19.109375 L 20.671875 -15.984375 C 21.359375 -15.203125 21.359375 -14.90625 20.578125 -14.234375 L 6.28125 -1.875 C 5.5 -1.203125 5.203125 -1.25 4.515625 -2.03125 L 0.921875 1.078125 L 3.4375 3.96875 L 6.125 7.078125 L 13.703125 15.875 L 21.5 9.140625 L 18.40625 5.53125 C 15.25 8.265625 14.6875 8.234375 11.96875 5.078125 L 10.46875 3.328125 L 15.65625 -1.15625 L 19.109375 2.859375 L 23.40625 -0.859375 L 19.953125 -4.875 L 25.15625 -9.359375 L 26.65625 -7.609375 C 29.375 -4.453125 29.34375 -3.90625 26.1875 -1.1875 L 29.28125 2.421875 Z M 37.0625 -4.3125 "/></g></g></g><g fill="#405459" fill-opacity="1"><g transform="translate(98.752162, 287.619519)"><g><path d="M 19.21875 -24.171875 L 16.359375 -20.359375 C 17.1875 -19.75 17.234375 -19.46875 16.625 -18.65625 L 5.28125 -3.515625 C 4.65625 -2.703125 4.375 -2.65625 3.546875 -3.265625 L 0.703125 0.53125 L 7.015625 5.265625 L 16.3125 12.234375 L 22.484375 4 L 18.671875 1.140625 C 16.171875 4.46875 15.625 4.546875 12.296875 2.046875 L 10.453125 0.671875 L 21.953125 -14.65625 C 22.5625 -15.46875 22.828125 -15.515625 23.65625 -14.890625 L 26.515625 -18.703125 Z M 19.21875 -24.171875 "/></g></g></g><g fill="#405459" fill-opacity="1"><g transform="translate(121.544437, 303.413963)"><g/></g></g><g fill="#405459" fill-opacity="1"><g transform="translate(135.815365, 310.919899)"><g><path d="M 27.0625 -7.6875 C 30.09375 -17.359375 28.375 -23.453125 21.265625 -25.6875 L 18.140625 -26.65625 L 15.328125 -27.546875 L 10.609375 -29.03125 L 9.1875 -24.484375 C 10.171875 -24.171875 10.328125 -23.921875 10.015625 -22.9375 L 4.359375 -4.890625 C 4.046875 -3.90625 3.765625 -3.796875 2.78125 -4.109375 L 1.359375 0.421875 L 6.078125 1.90625 L 8.890625 2.796875 L 12.015625 3.765625 C 19.125 6 24.03125 2 27.0625 -7.6875 Z M 16.4375 -21.234375 L 17.921875 -20.78125 C 21.75 -19.578125 22.796875 -16.359375 20.703125 -9.6875 C 18.59375 -2.984375 15.90625 -0.96875 12.078125 -2.171875 L 10.59375 -2.625 Z M 16.4375 -21.234375 "/></g></g></g><g fill="#405459" fill-opacity="1"><g transform="translate(166.731017, 319.595684)"><g><path d="M 6 -30.53125 L 5.65625 -25.78125 C 6.625 -25.703125 7.515625 -25.640625 8.25 -25.546875 L 2.625 -5.703125 C 2.359375 -4.75 2.109375 -4.609375 0.9375 -4.6875 L 0.59375 0.046875 L 9.46875 0.671875 L 9.8125 -4.0625 C 8.703125 -4.140625 8.40625 -4.25 8.453125 -5 C 8.46875 -5.1875 8.484375 -5.4375 8.578125 -5.734375 L 9.546875 -9.921875 L 14 -9.609375 L 14.390625 -5.328125 C 14.40625 -5.03125 14.4375 -4.765625 14.421875 -4.578125 C 14.375 -3.9375 13.9375 -3.765625 12.859375 -3.84375 L 12.515625 0.890625 L 22.375 1.59375 L 22.71875 -3.140625 C 21.5625 -3.234375 21.3125 -3.40625 21.203125 -4.390625 L 17.71875 -29.6875 Z M 12.765625 -22.828125 C 12.96875 -22.125 13 -21.171875 13.0625 -20 L 13.546875 -14.421875 L 10.703125 -14.625 Z M 12.765625 -22.828125 "/></g></g></g><g fill="#405459" fill-opacity="1"><g transform="translate(197.219301, 320.819063)"><g><path d="M 0.703125 -1.890625 C 0.703125 -1.890625 4.1875 -0.1875 10.140625 -1.078125 C 17.03125 -2.109375 19.5 -6.15625 18.734375 -11.28125 C 18 -16.1875 15.28125 -18.734375 11.125 -19.3125 L 7.71875 -19.9375 C 5.4375 -20.21875 4.46875 -21.421875 4.1875 -23.3125 C 3.890625 -25.359375 4.921875 -26.609375 6.8125 -26.890625 C 9.4375 -27.28125 10.609375 -26.0625 11.09375 -22.859375 L 15.78125 -23.5625 L 14.578125 -31.609375 C 14.578125 -31.609375 11.4375 -33.375 6.15625 -32.59375 C -0.03125 -31.65625 -3.25 -28.25 -2.359375 -22.328125 C -1.625 -17.453125 1.296875 -14.90625 5.234375 -14.34375 L 8.40625 -13.734375 C 10.71875 -13.40625 11.828125 -12.328125 12.109375 -10.4375 C 12.421875 -8.390625 11.328125 -7.046875 9.0625 -6.703125 C 6.046875 -6.265625 4.640625 -7.421875 4.15625 -10.625 L -0.5 -9.921875 Z M 0.703125 -1.890625 "/></g></g></g><g fill="#405459" fill-opacity="1"><g transform="translate(225.469336, 315.918436)"><g><path d="M -10 -29.234375 L -8.25 -24.796875 C -7.296875 -25.1875 -7.015625 -25.09375 -6.625 -24.140625 L 0.296875 -6.546875 C 0.6875 -5.59375 0.53125 -5.328125 -0.421875 -4.9375 L 1.328125 -0.515625 L 9.84375 -3.875 L 8.09375 -8.296875 C 7.140625 -7.9375 6.84375 -8.03125 6.453125 -8.984375 L 4.03125 -15.140625 L 9.734375 -17.375 L 12.15625 -11.21875 C 12.546875 -10.265625 12.375 -10 11.421875 -9.609375 L 13.171875 -5.1875 L 21.703125 -8.5625 L 19.953125 -12.984375 C 18.984375 -12.609375 18.703125 -12.703125 18.3125 -13.65625 L 11.390625 -31.25 C 11 -32.203125 11.15625 -32.46875 12.125 -32.84375 L 10.375 -37.28125 L 1.84375 -33.90625 L 3.59375 -29.46875 C 4.546875 -29.859375 4.84375 -29.765625 5.234375 -28.8125 L 7.65625 -22.65625 L 1.953125 -20.421875 L -0.46875 -26.578125 C -0.859375 -27.53125 -0.6875 -27.796875 0.265625 -28.15625 L -1.484375 -32.59375 Z M -10 -29.234375 "/></g></g></g><g fill="#405459" fill-opacity="1"><g transform="translate(255.220219, 303.060882)"><g><path d="M 12.296875 -19.234375 C 10.359375 -22.03125 8.3125 -23.453125 5.90625 -23.46875 C 6.109375 -25.328125 5.359375 -27.34375 3.859375 -29.515625 C 0.59375 -34.21875 -3.171875 -35.375 -8.34375 -31.796875 L -10.578125 -30.234375 L -14.453125 -27.5625 L -17.109375 -25.71875 L -14.390625 -21.796875 C -13.546875 -22.375 -13.28125 -22.328125 -12.703125 -21.484375 L -1.921875 -5.953125 C -1.34375 -5.09375 -1.375 -4.828125 -2.21875 -4.25 L 0.484375 -0.34375 L 3.140625 -2.1875 L 7.015625 -4.859375 L 10.140625 -7.03125 C 15.265625 -10.59375 15.546875 -14.546875 12.296875 -19.234375 Z M -7.34375 -25.5625 L -6.546875 -26.109375 C -4.375 -27.625 -2.78125 -27.40625 -1.390625 -25.390625 C 0.015625 -23.375 -0.375 -21.859375 -2.546875 -20.34375 L -3.34375 -19.796875 Z M -0.21875 -15.28125 L 1.515625 -16.484375 C 3.671875 -17.984375 5.28125 -17.734375 6.625 -15.8125 C 8.015625 -13.796875 7.671875 -12.234375 5.515625 -10.734375 L 3.78125 -9.53125 Z M -0.21875 -15.28125 "/></g></g></g><g fill="#405459" fill-opacity="1"><g transform="translate(279.117029, 285.576625)"><g><path d="M -5.703125 -16.6875 C -12.015625 -22.40625 -12.46875 -24.40625 -10.84375 -26.1875 C -9.25 -27.953125 -7.421875 -27.765625 -0.96875 -21.921875 C 5.484375 -16.0625 5.8125 -14.296875 4.21875 -12.53125 C 2.59375 -10.75 0.75 -10.828125 -5.703125 -16.6875 Z M -10.8125 -11.0625 C -2.609375 -3.609375 3.1875 -2.859375 8.46875 -8.671875 C 13.75 -14.515625 12.359375 -20.125 4.15625 -27.578125 C -4.046875 -35.015625 -9.78125 -35.84375 -15.0625 -30 C -20.34375 -24.1875 -19.015625 -18.5 -10.8125 -11.0625 Z M -10.8125 -11.0625 "/></g></g></g><g fill="#405459" fill-opacity="1"><g transform="translate(299.754347, 261.377706)"><g><path d="M -25.1875 -18.28125 L -21.015625 -15.96875 C -20.546875 -16.8125 -20.109375 -17.59375 -19.703125 -18.21875 L -4.078125 -4.765625 C -3.328125 -4.140625 -3.296875 -3.84375 -3.875 -2.8125 L 0.28125 -0.515625 L 4.59375 -8.3125 L 0.4375 -10.609375 C -0.109375 -9.625 -0.328125 -9.421875 -0.984375 -9.78125 C -1.15625 -9.875 -1.375 -9.984375 -1.609375 -10.1875 L -5.015625 -12.828125 L -2.84375 -16.734375 L 1.203125 -15.296875 C 1.484375 -15.171875 1.734375 -15.109375 1.90625 -15.015625 C 2.453125 -14.703125 2.421875 -14.21875 1.90625 -13.28125 L 6.0625 -10.984375 L 10.84375 -19.640625 L 6.6875 -21.9375 C 6.125 -20.921875 5.859375 -20.78125 4.921875 -21.078125 L -19.5 -28.5625 Z M -15.34375 -21.171875 C -14.625 -21.0625 -13.75 -20.703125 -12.671875 -20.25 L -7.390625 -18.34375 L -8.765625 -15.859375 Z M -15.34375 -21.171875 "/></g></g></g><g fill="#405459" fill-opacity="1"><g transform="translate(313.844168, 234.119694)"><g><path d="M 1.75 -23.78125 C 1.265625 -22.03125 1.03125 -21.734375 -0.546875 -21.734375 L -5.984375 -21.40625 C -7.203125 -21.390625 -8.265625 -21.234375 -9.171875 -20.875 C -9.859375 -23.40625 -11.90625 -25.140625 -15.484375 -26.140625 C -21.34375 -27.765625 -24.90625 -25.578125 -26.453125 -20.046875 L -27.203125 -17.359375 L -28.09375 -14.15625 L -29.34375 -9.71875 L -24.75 -8.4375 C -24.46875 -9.421875 -24.234375 -9.625 -23.234375 -9.34375 L -5.03125 -4.265625 C -4.03125 -3.984375 -3.90625 -3.6875 -4.1875 -2.703125 L 0.390625 -1.421875 L 2.859375 -10.25 L -1.71875 -11.53125 C -2 -10.53125 -2.234375 -10.390625 -3.234375 -10.671875 L -9.3125 -12.375 C -8.71875 -14.34375 -7.921875 -14.671875 -6.40625 -14.765625 L 0.03125 -15.046875 C 3.390625 -15.03125 5.015625 -16.34375 5.890625 -19.453125 C 6.4375 -21.4375 6.28125 -22.515625 6.28125 -22.515625 Z M -21.734375 -15.828125 L -21.28125 -17.4375 C -20.6875 -19.609375 -19.3125 -20.296875 -16.90625 -19.625 C -14.5 -18.953125 -13.75 -17.671875 -14.34375 -15.5 L -14.796875 -13.890625 Z M -21.734375 -15.828125 "/></g></g></g><g fill="#405459" fill-opacity="1"><g transform="translate(321.530131, 203.23256)"><g><path d="M -14.609375 -24.03125 C -24.75 -24.375 -30.171875 -21.09375 -30.421875 -13.65625 L -30.546875 -10.375 L -30.640625 -7.4375 L -30.8125 -2.484375 L -26.046875 -2.3125 C -26.015625 -3.34375 -25.8125 -3.578125 -24.78125 -3.546875 L -5.890625 -2.890625 C -4.859375 -2.859375 -4.671875 -2.609375 -4.703125 -1.578125 L 0.046875 -1.421875 L 0.21875 -6.375 L 0.3125 -9.3125 L 0.4375 -12.59375 C 0.6875 -20.03125 -4.484375 -23.6875 -14.609375 -24.03125 Z M -24.859375 -10.171875 L -24.796875 -11.734375 C -24.65625 -15.734375 -21.84375 -17.609375 -14.84375 -17.375 C -7.84375 -17.140625 -5.171875 -15.078125 -5.3125 -11.078125 L -5.375 -9.515625 Z M -24.859375 -10.171875 "/></g></g></g><g fill="#ffffff" fill-opacity="1"><g transform="translate(66.869649, 123.014289)"><g><path d="M 13.484375 -15.125 L 3.90625 -15.125 L 3.40625 -12.796875 C 3.796875 -12.796875 3.953125 -12.75 3.953125 -12.484375 C 3.953125 -12.40625 3.9375 -12.3125 3.90625 -12.1875 L 1.9375 -2.921875 C 1.828125 -2.421875 1.703125 -2.328125 1.203125 -2.328125 L 0.703125 0 L 10.265625 0 L 11.359375 -5.046875 L 9.03125 -5.046875 C 8.59375 -3 8.359375 -2.8125 6.3125 -2.8125 L 5.1875 -2.8125 L 5.90625 -6.171875 L 8.5 -6.171875 L 9.078125 -8.953125 L 6.484375 -8.953125 L 7.203125 -12.3125 L 8.328125 -12.3125 C 9.796875 -12.3125 10.296875 -12.21875 10.296875 -11.40625 C 10.296875 -11.09375 10.203125 -10.65625 10.078125 -10.078125 L 12.40625 -10.078125 Z M 13.484375 -15.125 "/></g></g></g><g fill="#ffffff" fill-opacity="1"><g transform="translate(78.821689, 123.014289)"><g><path d="M 0.640625 -0.859375 C 0.640625 -0.859375 1.96875 0.21875 4.921875 0.21875 C 8.328125 0.21875 10.21875 -1.5625 10.75 -4.109375 C 10.84375 -4.5625 10.890625 -4.984375 10.890625 -5.375 C 10.890625 -7.03125 10.078125 -8.0625 8.5625 -8.515625 L 7.078125 -9.078125 C 6.28125 -9.3125 5.96875 -9.765625 5.96875 -10.421875 C 5.96875 -10.609375 6 -10.796875 6.03125 -10.984375 C 6.234375 -12 6.953125 -12.53125 7.890625 -12.53125 C 8.875 -12.53125 9.3125 -12.140625 9.3125 -11.25 C 9.3125 -10.96875 9.265625 -10.65625 9.1875 -10.265625 L 11.515625 -10.265625 L 12.359375 -14.25 C 12.359375 -14.25 11.203125 -15.34375 8.59375 -15.34375 C 5.515625 -15.34375 3.40625 -13.921875 2.78125 -10.984375 C 2.6875 -10.53125 2.65625 -10.125 2.65625 -9.765625 C 2.65625 -8.09375 3.53125 -7.078125 4.96875 -6.625 L 6.34375 -6.078125 C 7.171875 -5.8125 7.5625 -5.359375 7.5625 -4.65625 C 7.5625 -4.515625 7.5625 -4.34375 7.515625 -4.171875 C 7.296875 -3.171875 6.546875 -2.59375 5.421875 -2.59375 C 4.25 -2.59375 3.71875 -3.03125 3.71875 -3.984375 C 3.71875 -4.21875 3.75 -4.515625 3.8125 -4.84375 L 1.484375 -4.84375 Z M 0.640625 -0.859375 "/></g></g></g><g fill="#ffffff" fill-opacity="1"><g transform="translate(90.317727, 123.014289)"><g><path d="M 3.546875 -15.125 L 2.46875 -10.078125 L 4.296875 -10.078125 C 4.65625 -11.734375 4.890625 -12.1875 6.078125 -12.3125 L 4.078125 -2.921875 C 3.953125 -2.421875 3.84375 -2.328125 3.34375 -2.328125 L 2.828125 0 L 7.3125 0 L 7.828125 -2.328125 C 7.4375 -2.328125 7.296875 -2.375 7.296875 -2.609375 C 7.296875 -2.71875 7.3125 -2.8125 7.34375 -2.921875 L 9.34375 -12.3125 C 10.0625 -12.234375 10.3125 -12.03125 10.3125 -11.421875 C 10.3125 -11.09375 10.21875 -10.65625 10.109375 -10.078125 L 11.96875 -10.078125 L 13.0625 -15.125 Z M 3.546875 -15.125 "/></g></g></g><g fill="#ffffff" fill-opacity="1"><g transform="translate(101.669765, 123.014289)"><g><path d="M 13.125 -7.5625 C 13.375 -8.734375 13.515625 -9.765625 13.515625 -10.6875 C 13.515625 -13.609375 12.171875 -15.125 9.390625 -15.125 L 3.90625 -15.125 L 3.40625 -12.796875 C 3.796875 -12.796875 3.953125 -12.75 3.953125 -12.484375 C 3.953125 -12.40625 3.9375 -12.3125 3.90625 -12.1875 L 1.9375 -2.921875 C 1.828125 -2.421875 1.703125 -2.328125 1.203125 -2.328125 L 0.703125 0 L 6.171875 0 C 9.8125 0 12.078125 -2.59375 13.125 -7.5625 Z M 7.171875 -12.34375 L 7.9375 -12.34375 C 9.40625 -12.34375 10.15625 -11.609375 10.15625 -9.84375 C 10.15625 -9.21875 10.0625 -8.46875 9.859375 -7.5625 C 9.140625 -4.125 7.890625 -2.78125 5.921875 -2.78125 L 5.15625 -2.78125 Z M 7.171875 -12.34375 "/></g></g></g><g fill="#ffffff" fill-opacity="1"><g transform="translate(260.340749, 124.515592)"><g><path d="M 0.46875 0 L 9.34375 0 L 10.46875 -5.25 L 8.046875 -5.25 C 7.59375 -3.125 7.421875 -2.90625 5.53125 -2.90625 L 4.5 -2.90625 C 4.71875 -3.671875 5.09375 -4.125 5.578125 -4.53125 L 7.953125 -6.5 C 10.21875 -8.375 11.21875 -9.796875 11.65625 -11.78125 C 11.78125 -12.296875 11.828125 -12.796875 11.828125 -13.21875 C 11.828125 -15.171875 10.625 -15.96875 8.21875 -15.96875 C 5.71875 -15.96875 4.171875 -14.96875 4.171875 -14.96875 L 3.28125 -10.703125 L 5.671875 -10.703125 C 6.078125 -12.59375 6.578125 -13.046875 7.46875 -13.046875 C 8.03125 -13.046875 8.28125 -12.71875 8.28125 -12.25 C 8.28125 -12.125 8.25 -12 8.21875 -11.84375 C 7.96875 -10.671875 7.546875 -10.125 6.28125 -9.078125 L 3.40625 -6.703125 C 2.125 -5.65625 1.46875 -4.65625 1.046875 -2.703125 Z M 0.46875 0 "/></g></g></g><g fill="#ffffff" fill-opacity="1"><g transform="translate(271.38922, 124.515592)"><g><path d="M 5.546875 -7.875 C 6.53125 -12.53125 6.953125 -13.078125 7.671875 -13.078125 C 8.046875 -13.078125 8.296875 -12.921875 8.296875 -12.125 C 8.296875 -11.375 8.09375 -10.09375 7.625 -7.875 C 6.625 -3.21875 6.203125 -2.703125 5.46875 -2.703125 C 5.09375 -2.703125 4.875 -2.84375 4.875 -3.625 C 4.875 -4.34375 5.078125 -5.625 5.546875 -7.875 Z M 2.15625 -7.875 C 1.75 -6.046875 1.578125 -4.59375 1.578125 -3.453125 C 1.578125 -0.75 2.65625 0.21875 4.84375 0.21875 C 7.96875 0.21875 9.71875 -1.75 11.03125 -7.875 C 11.40625 -9.671875 11.59375 -11.125 11.59375 -12.28125 C 11.59375 -15 10.5 -15.96875 8.296875 -15.96875 C 5.171875 -15.96875 3.453125 -14 2.15625 -7.875 Z M 2.15625 -7.875 "/></g></g></g><g fill="#ffffff" fill-opacity="1"><g transform="translate(282.437691, 124.515592)"><g><path d="M 0.46875 0 L 9.34375 0 L 10.46875 -5.25 L 8.046875 -5.25 C 7.59375 -3.125 7.421875 -2.90625 5.53125 -2.90625 L 4.5 -2.90625 C 4.71875 -3.671875 5.09375 -4.125 5.578125 -4.53125 L 7.953125 -6.5 C 10.21875 -8.375 11.21875 -9.796875 11.65625 -11.78125 C 11.78125 -12.296875 11.828125 -12.796875 11.828125 -13.21875 C 11.828125 -15.171875 10.625 -15.96875 8.21875 -15.96875 C 5.71875 -15.96875 4.171875 -14.96875 4.171875 -14.96875 L 3.28125 -10.703125 L 5.671875 -10.703125 C 6.078125 -12.59375 6.578125 -13.046875 7.46875 -13.046875 C 8.03125 -13.046875 8.28125 -12.71875 8.28125 -12.25 C 8.28125 -12.125 8.25 -12 8.21875 -11.84375 C 7.96875 -10.671875 7.546875 -10.125 6.28125 -9.078125 L 3.40625 -6.703125 C 2.125 -5.65625 1.46875 -4.65625 1.046875 -2.703125 Z M 0.46875 0 "/></g></g></g><g fill="#ffffff" fill-opacity="1"><g transform="translate(293.486161, 124.515592)"><g><path d="M 1.203125 -4.046875 L 6.21875 -4.046875 L 6.15625 -3.59375 C 5.921875 -2.546875 5.78125 -2.421875 4.71875 -2.421875 L 4.203125 0 L 9.953125 0 L 10.46875 -2.421875 C 9.703125 -2.421875 9.453125 -2.5 9.453125 -2.921875 C 9.453125 -3.078125 9.46875 -3.296875 9.546875 -3.59375 L 9.625 -4.046875 L 10.796875 -4.046875 L 11.421875 -6.953125 L 10.25 -6.953125 L 12.125 -15.75 L 7.375 -15.75 L 1.828125 -6.953125 Z M 6.84375 -6.953125 L 4.53125 -6.953125 L 8.09375 -12.78125 Z M 6.84375 -6.953125 "/></g></g></g></svg>